<svg preserveAspectRatio="none" width="100%" height="100%" overflow="visible" style="display: block;" viewBox="0 0 171.488 173.592" fill="none" xmlns="http://www.w3.org/2000/svg">
<g id="Pattern">
<path id="Vector" d="M20.4602 7.71096H14.3887V1.64347C14.3887 0.737341 13.652 2.50144e-06 12.7466 2.50144e-06H9.34692C8.44152 2.50144e-06 7.70477 0.737341 7.70477 1.64347V7.71096H1.63327C0.727874 7.71096 4.34625e-06 8.4483 4.34625e-06 9.34555V12.748C4.34625e-06 13.6541 0.73675 14.3825 1.63327 14.3825H7.70477V20.45C7.70477 21.3562 8.44152 22.0935 9.34692 22.0935H12.7466C13.652 22.0935 14.3887 21.3562 14.3887 20.45V14.3825H20.4602C21.3656 14.3825 22.0935 13.6452 22.0935 12.748V9.34555C22.0935 8.43942 21.3568 7.71096 20.4602 7.71096Z" fill="var(--fill-0, white)" fill-opacity="0.2"/>
<path id="Vector_2" d="M20.4602 50.8459H14.3887V44.7784C14.3887 43.8723 13.652 43.1349 12.7466 43.1349H9.34692C8.44152 43.1349 7.70477 43.8723 7.70477 44.7784V50.8459H1.63327C0.727874 50.8459 4.34625e-06 51.5832 4.34625e-06 52.4805V55.8829C4.34625e-06 56.789 0.73675 57.5175 1.63327 57.5175H7.70477V63.585C7.70477 64.4911 8.44152 65.2284 9.34692 65.2284H12.7466C13.652 65.2284 14.3887 64.4911 14.3887 63.585V57.5175H20.4602C21.3656 57.5175 22.0935 56.7801 22.0935 55.8829V52.4805C22.0935 51.5744 21.3568 50.8459 20.4602 50.8459Z" fill="var(--fill-0, white)" fill-opacity="0.2"/>
<path id="Vector_3" d="M20.4602 93.9808H14.3887V87.9133C14.3887 87.0072 13.652 86.2699 12.7466 86.2699H9.34692C8.44152 86.2699 7.70477 87.0072 7.70477 87.9133V93.9808H1.63327C0.727874 93.9808 4.34625e-06 94.7182 4.34625e-06 95.6154V99.0178C4.34625e-06 99.924 0.73675 100.652 1.63327 100.652H7.70477V106.72C7.70477 107.626 8.44152 108.363 9.34692 108.363H12.7466C13.652 108.363 14.3887 107.626 14.3887 106.72V100.652H20.4602C21.3656 100.652 22.0935 99.9151 22.0935 99.0178V95.6154C22.0935 94.7093 21.3568 93.9808 20.4602 93.9808Z" fill="var(--fill-0, white)" fill-opacity="0.2"/>
<path id="Vector_4" d="M20.4602 137.801H14.3887V132.022C14.3887 131.159 13.652 130.457 12.7466 130.457H9.34692C8.44152 130.457 7.70477 131.159 7.70477 132.022V137.801H1.63327C0.727874 137.801 4.34625e-06 138.503 4.34625e-06 139.357V142.598C4.34625e-06 143.461 0.73675 144.155 1.63327 144.155H7.70477V149.933C7.70477 150.796 8.44152 151.498 9.34692 151.498H12.7466C13.652 151.498 14.3887 150.796 14.3887 149.933V144.155H20.4602C21.3656 144.155 22.0935 143.452 22.0935 142.598V139.357C22.0935 138.494 21.3568 137.801 20.4602 137.801Z" fill="var(--fill-0, white)" fill-opacity="0.3"/>
<path id="Vector_5" d="M49.9958 29.4373H44.2135V23.6587C44.2135 22.7957 43.5118 22.0935 42.6495 22.0935H39.4117C38.5494 22.0935 37.8478 22.7957 37.8478 23.6587V29.4373H32.0654C31.2031 29.4373 30.5099 30.1395 30.5099 30.994V34.2344C30.5099 35.0974 31.2116 35.7912 32.0654 35.7912H37.8478V41.5697C37.8478 42.4327 38.5494 43.1349 39.4117 43.1349H42.6495C43.5118 43.1349 44.2135 42.4327 44.2135 41.5697V35.7912H49.9958C50.8581 35.7912 51.5513 35.0889 51.5513 34.2344V30.994C51.5513 30.131 50.8497 29.4373 49.9958 29.4373Z" fill="var(--fill-0, white)" fill-opacity="0.3"/>
<path id="Vector_6" d="M49.9958 72.5722H44.2135V66.7936C44.2135 65.9307 43.5118 65.2284 42.6495 65.2284H39.4117C38.5494 65.2284 37.8478 65.9307 37.8478 66.7936V72.5722H32.0654C31.2031 72.5722 30.5099 73.2744 30.5099 74.1289V77.3693C30.5099 78.2323 31.2116 78.9261 32.0654 78.9261H37.8478V84.7047C37.8478 85.5676 38.5494 86.2699 39.4117 86.2699H42.6495C43.5118 86.2699 44.2135 85.5676 44.2135 84.7047V78.9261H49.9958C50.8581 78.9261 51.5513 78.2239 51.5513 77.3693V74.1289C51.5513 73.266 50.8497 72.5722 49.9958 72.5722Z" fill="var(--fill-0, white)" fill-opacity="0.3"/>
<path id="Vector_7" d="M49.9958 116.074H44.2135V110.007C44.2135 109.101 43.5118 108.363 42.6495 108.363H39.4117C38.5494 108.363 37.8478 109.101 37.8478 110.007V116.074H32.0654C31.2031 116.074 30.5099 116.812 30.5099 117.709V121.111C30.5099 122.017 31.2116 122.746 32.0654 122.746H37.8478V128.813C37.8478 129.72 38.5494 130.457 39.4117 130.457H42.6495C43.5118 130.457 44.2135 129.72 44.2135 128.813V122.746H49.9958C50.8581 122.746 51.5513 122.009 51.5513 121.111V117.709C51.5513 116.803 50.8497 116.074 49.9958 116.074Z" fill="var(--fill-0, white)" fill-opacity="0.3"/>
<path id="Vector_8" d="M49.9958 159.209H44.2135V153.142C44.2135 152.236 43.5118 151.498 42.6495 151.498H39.4117C38.5494 151.498 37.8478 152.236 37.8478 153.142V159.209H32.0654C31.2031 159.209 30.5099 159.947 30.5099 160.844V164.246C30.5099 165.152 31.2116 165.881 32.0654 165.881H37.8478V171.948C37.8478 172.854 38.5494 173.592 39.4117 173.592H42.6495C43.5118 173.592 44.2135 172.854 44.2135 171.948V165.881H49.9958C50.8581 165.881 51.5513 165.144 51.5513 164.246V160.844C51.5513 159.938 50.8497 159.209 49.9958 159.209Z" fill="var(--fill-0, white)" fill-opacity="0.3"/>
<path id="Vector_9" d="M80.4283 7.71096H74.3568V1.64347C74.3568 0.737341 73.6201 2.50144e-06 72.7147 2.50144e-06H69.315C68.4096 2.50144e-06 67.6729 0.737341 67.6729 1.64347V7.71096H61.6014C60.696 7.71096 59.9681 8.4483 59.9681 9.34555V12.748C59.9681 13.6541 60.7048 14.3825 61.6014 14.3825H67.6729V20.45C67.6729 21.3562 68.4096 22.0935 69.315 22.0935H72.7147C73.6201 22.0935 74.3568 21.3562 74.3568 20.45V14.3825H80.4283C81.3337 14.3825 82.0616 13.6452 82.0616 12.748V9.34555C82.0616 8.43942 81.3249 7.71096 80.4283 7.71096Z" fill="var(--fill-0, white)" fill-opacity="0.3"/>
<path id="Vector_10" d="M80.4283 50.8459H74.3568V44.7784C74.3568 43.8723 73.6201 43.1349 72.7147 43.1349H69.315C68.4096 43.1349 67.6729 43.8723 67.6729 44.7784V50.8459H61.6014C60.696 50.8459 59.9681 51.5832 59.9681 52.4805V55.8829C59.9681 56.789 60.7048 57.5175 61.6014 57.5175H67.6729V63.585C67.6729 64.4911 68.4096 65.2284 69.315 65.2284H72.7147C73.6201 65.2284 74.3568 64.4911 74.3568 63.585V57.5175H80.4283C81.3337 57.5175 82.0616 56.7801 82.0616 55.8829V52.4805C82.0616 51.5744 81.3249 50.8459 80.4283 50.8459Z" fill="var(--fill-0, white)" fill-opacity="0.3"/>
<path id="Vector_11" d="M80.4283 93.9808H74.3568V87.9133C74.3568 87.0072 73.6201 86.2699 72.7147 86.2699H69.315C68.4096 86.2699 67.6729 87.0072 67.6729 87.9133V93.9808H61.6014C60.696 93.9808 59.9681 94.7182 59.9681 95.6154V99.0178C59.9681 99.924 60.7048 100.652 61.6014 100.652H67.6729V106.72C67.6729 107.626 68.4096 108.363 69.315 108.363H72.7147C73.6201 108.363 74.3568 107.626 74.3568 106.72V100.652H80.4283C81.3337 100.652 82.0616 99.9151 82.0616 99.0178V95.6154C82.0616 94.7093 81.3249 93.9808 80.4283 93.9808Z" fill="var(--fill-0, white)" fill-opacity="0.3"/>
<path id="Vector_12" d="M80.4283 137.801H74.3568V132.022C74.3568 131.159 73.6201 130.457 72.7147 130.457H69.315C68.4096 130.457 67.6729 131.159 67.6729 132.022V137.801H61.6014C60.696 137.801 59.9681 138.503 59.9681 139.357V142.598C59.9681 143.461 60.7048 144.155 61.6014 144.155H67.6729V149.933C67.6729 150.796 68.4096 151.498 69.315 151.498H72.7147C73.6201 151.498 74.3568 150.796 74.3568 149.933V144.155H80.4283C81.3337 144.155 82.0616 143.452 82.0616 142.598V139.357C82.0616 138.494 81.3249 137.801 80.4283 137.801Z" fill="var(--fill-0, white)" fill-opacity="0.3"/>
<path id="Vector_13" d="M110.938 29.4373H104.867V23.6587C104.867 22.7957 104.13 22.0935 103.225 22.0935H99.8249C98.9195 22.0935 98.1828 22.7957 98.1828 23.6587V29.4373H92.1113C91.2059 29.4373 90.478 30.1395 90.478 30.994V34.2344C90.478 35.0974 91.2148 35.7912 92.1113 35.7912H98.1828V41.5697C98.1828 42.4327 98.9195 43.1349 99.8249 43.1349H103.225C104.13 43.1349 104.867 42.4327 104.867 41.5697V35.7912H110.938C111.844 35.7912 112.572 35.0889 112.572 34.2344V30.994C112.572 30.131 111.835 29.4373 110.938 29.4373Z" fill="var(--fill-0, white)" fill-opacity="0.3"/>
<path id="Vector_14" d="M110.938 72.5722H104.867V66.7936C104.867 65.9307 104.13 65.2284 103.225 65.2284H99.8249C98.9195 65.2284 98.1828 65.9307 98.1828 66.7936V72.5722H92.1113C91.2059 72.5722 90.478 73.2744 90.478 74.1289V77.3693C90.478 78.2323 91.2148 78.9261 92.1113 78.9261H98.1828V84.7047C98.1828 85.5676 98.9195 86.2699 99.8249 86.2699H103.225C104.13 86.2699 104.867 85.5676 104.867 84.7047V78.9261H110.938C111.844 78.9261 112.572 78.2239 112.572 77.3693V74.1289C112.572 73.266 111.835 72.5722 110.938 72.5722Z" fill="var(--fill-0, white)" fill-opacity="0.3"/>
<path id="Vector_15" d="M110.938 116.074H104.867V110.007C104.867 109.101 104.13 108.363 103.225 108.363H99.8249C98.9195 108.363 98.1828 109.101 98.1828 110.007V116.074H92.1113C91.2059 116.074 90.478 116.812 90.478 117.709V121.111C90.478 122.017 91.2148 122.746 92.1113 122.746H98.1828V128.813C98.1828 129.72 98.9195 130.457 99.8249 130.457H103.225C104.13 130.457 104.867 129.72 104.867 128.813V122.746H110.938C111.844 122.746 112.572 122.009 112.572 121.111V117.709C112.572 116.803 111.835 116.074 110.938 116.074Z" fill="var(--fill-0, white)" fill-opacity="0.3"/>
<path id="Vector_16" d="M110.938 159.209H104.867V153.142C104.867 152.236 104.13 151.498 103.225 151.498H99.8249C98.9195 151.498 98.1828 152.236 98.1828 153.142V159.209H92.1113C91.2059 159.209 90.478 159.947 90.478 160.844V164.246C90.478 165.152 91.2148 165.881 92.1113 165.881H98.1828V171.948C98.1828 172.854 98.9195 173.592 99.8249 173.592H103.225C104.13 173.592 104.867 172.854 104.867 171.948V165.881H110.938C111.844 165.881 112.572 165.144 112.572 164.246V160.844C112.572 159.938 111.835 159.209 110.938 159.209Z" fill="var(--fill-0, white)" fill-opacity="0.3"/>
<path id="Vector_17" d="M139.422 7.71096H133.64V1.64347C133.64 0.737341 132.938 2.50144e-06 132.076 2.50144e-06H128.838C127.976 2.50144e-06 127.274 0.737341 127.274 1.64347V7.71096H121.492C120.629 7.71096 119.936 8.4483 119.936 9.34555V12.748C119.936 13.6541 120.638 14.3825 121.492 14.3825H127.274V20.45C127.274 21.3562 127.976 22.0935 128.838 22.0935H132.076C132.938 22.0935 133.64 21.3562 133.64 20.45V14.3825H139.422C140.284 14.3825 140.978 13.6452 140.978 12.748V9.34555C140.978 8.43942 140.276 7.71096 139.422 7.71096Z" fill="var(--fill-0, white)" fill-opacity="0.3"/>
<path id="Vector_18" d="M139.422 50.8459H133.64V44.7784C133.64 43.8723 132.938 43.1349 132.076 43.1349H128.838C127.976 43.1349 127.274 43.8723 127.274 44.7784V50.8459H121.492C120.629 50.8459 119.936 51.5832 119.936 52.4805V55.8829C119.936 56.789 120.638 57.5175 121.492 57.5175H127.274V63.585C127.274 64.4911 127.976 65.2284 128.838 65.2284H132.076C132.938 65.2284 133.64 64.4911 133.64 63.585V57.5175H139.422C140.284 57.5175 140.978 56.7801 140.978 55.8829V52.4805C140.978 51.5744 140.276 50.8459 139.422 50.8459Z" fill="var(--fill-0, white)" fill-opacity="0.3"/>
<path id="Vector_19" d="M139.422 93.9808H133.64V87.9133C133.64 87.0072 132.938 86.2699 132.076 86.2699H128.838C127.976 86.2699 127.274 87.0072 127.274 87.9133V93.9808H121.492C120.629 93.9808 119.936 94.7182 119.936 95.6154V99.0178C119.936 99.924 120.638 100.652 121.492 100.652H127.274V106.72C127.274 107.626 127.976 108.363 128.838 108.363H132.076C132.938 108.363 133.64 107.626 133.64 106.72V100.652H139.422C140.284 100.652 140.978 99.9151 140.978 99.0178V95.6154C140.978 94.7093 140.276 93.9808 139.422 93.9808Z" fill="var(--fill-0, white)" fill-opacity="0.3"/>
<path id="Vector_20" d="M139.422 137.801H133.64V132.022C133.64 131.159 132.938 130.457 132.076 130.457H128.838C127.976 130.457 127.274 131.159 127.274 132.022V137.801H121.492C120.629 137.801 119.936 138.503 119.936 139.357V142.598C119.936 143.461 120.638 144.155 121.492 144.155H127.274V149.933C127.274 150.796 127.976 151.498 128.838 151.498H132.076C132.938 151.498 133.64 150.796 133.64 149.933V144.155H139.422C140.284 144.155 140.978 143.452 140.978 142.598V139.357C140.978 138.494 140.276 137.801 139.422 137.801Z" fill="var(--fill-0, white)" fill-opacity="0.3"/>
<path id="Vector_21" d="M169.854 29.4373H163.783V23.6587C163.783 22.7957 163.046 22.0935 162.141 22.0935H158.741C157.836 22.0935 157.099 22.7957 157.099 23.6587V29.4373H151.027C150.122 29.4373 149.394 30.1395 149.394 30.994V34.2344C149.394 35.0974 150.131 35.7912 151.027 35.7912H157.099V41.5697C157.099 42.4327 157.836 43.1349 158.741 43.1349H162.141C163.046 43.1349 163.783 42.4327 163.783 41.5697V35.7912H169.854C170.76 35.7912 171.488 35.0889 171.488 34.2344V30.994C171.488 30.131 170.751 29.4373 169.854 29.4373Z" fill="var(--fill-0, white)" fill-opacity="0.3"/>
<path id="Vector_22" d="M169.854 72.5722H163.783V66.7936C163.783 65.9307 163.046 65.2284 162.141 65.2284H158.741C157.836 65.2284 157.099 65.9307 157.099 66.7936V72.5722H151.027C150.122 72.5722 149.394 73.2744 149.394 74.1289V77.3693C149.394 78.2323 150.131 78.9261 151.027 78.9261H157.099V84.7047C157.099 85.5676 157.836 86.2699 158.741 86.2699H162.141C163.046 86.2699 163.783 85.5676 163.783 84.7047V78.9261H169.854C170.76 78.9261 171.488 78.2239 171.488 77.3693V74.1289C171.488 73.266 170.751 72.5722 169.854 72.5722Z" fill="var(--fill-0, white)" fill-opacity="0.3"/>
<path id="Vector_23" d="M169.854 116.074H163.783V110.007C163.783 109.101 163.046 108.363 162.141 108.363H158.741C157.836 108.363 157.099 109.101 157.099 110.007V116.074H151.027C150.122 116.074 149.394 116.812 149.394 117.709V121.111C149.394 122.017 150.131 122.746 151.027 122.746H157.099V128.813C157.099 129.72 157.836 130.457 158.741 130.457H162.141C163.046 130.457 163.783 129.72 163.783 128.813V122.746H169.854C170.76 122.746 171.488 122.009 171.488 121.111V117.709C171.488 116.803 170.751 116.074 169.854 116.074Z" fill="var(--fill-0, white)" fill-opacity="0.3"/>
<path id="Vector_24" d="M169.854 159.209H163.783V153.142C163.783 152.236 163.046 151.498 162.141 151.498H158.741C157.836 151.498 157.099 152.236 157.099 153.142V159.209H151.027C150.122 159.209 149.394 159.947 149.394 160.844V164.246C149.394 165.152 150.131 165.881 151.027 165.881H157.099V171.948C157.099 172.854 157.836 173.592 158.741 173.592H162.141C163.046 173.592 163.783 172.854 163.783 171.948V165.881H169.854C170.76 165.881 171.488 165.144 171.488 164.246V160.844C171.488 159.938 170.751 159.209 169.854 159.209Z" fill="var(--fill-0, white)" fill-opacity="0.3"/>
</g>
</svg>
