<svg preserveAspectRatio="none" width="100%" height="100%" overflow="visible" style="display: block;" viewBox="0 0 31 20" fill="none" xmlns="http://www.w3.org/2000/svg">
<g id="jetplus-secondary">
<path id="Vector" d="M30.2606 3.83815H27.5118V1.20616C27.5118 0.8131 27.1782 0.493254 26.7683 0.493254H25.2292C24.8193 0.493254 24.4857 0.8131 24.4857 1.20616V3.83815H21.737C21.3271 3.83815 20.9975 4.15799 20.9975 4.5472V6.02312C20.9975 6.41618 21.3311 6.73218 21.737 6.73218H24.4857V9.36416C24.4857 9.75722 24.8193 10.0771 25.2292 10.0771H26.7683C27.1782 10.0771 27.5118 9.75722 27.5118 9.36416V6.73218H30.2606C30.6705 6.73218 31 6.41233 31 6.02312V4.5472C31 4.15414 30.6664 3.83815 30.2606 3.83815Z" fill="var(--fill-0, #F36805)"/>
<path id="Vector_2" d="M20.242 9.91137C20.242 10.1734 20.0572 10.3892 19.804 10.4509L18.1121 10.763C17.8871 10.8208 17.7143 11.0096 17.6902 11.237C17.6821 11.3565 17.6219 12.5626 17.5254 14.0462C17.5093 14.3198 17.4892 14.605 17.4651 14.894C17.429 15.3911 17.3888 15.8998 17.3486 16.3969C17.2361 17.738 17.0994 18.9711 16.9507 19.5761C16.8864 19.815 16.6574 19.9923 16.3881 19.9923H16.3761C15.713 19.9769 15.0861 19.9653 14.4511 19.9538C14.3748 19.9538 14.3105 19.8921 14.3105 19.8189C14.3105 19.8189 14.4351 18.0077 14.5355 15.6994C14.6561 12.9827 14.7485 9.50289 14.5556 7.45665C14.5436 7.34489 14.5275 7.29865 14.5275 7.29865C14.4752 7.17148 14.3466 7.079 14.1939 7.079C14.1136 7.079 14.0412 7.10212 13.985 7.14451C13.985 7.14451 13.9448 7.17148 13.8765 7.23314C13.8765 7.23314 11.6381 9.42582 11.1679 15.9345C11.1679 15.9345 11.1598 16.027 11.184 16.1079C11.204 16.1734 11.2402 16.2351 11.2965 16.2852C11.3527 16.3314 11.4251 16.3661 11.5175 16.3815L12.6829 16.5356C12.7874 16.5511 12.8638 16.6243 12.8638 16.7245C12.8638 16.7245 12.8517 16.9981 12.8115 17.5183C12.7713 18.0347 12.703 18.7977 12.5905 19.7765C12.5784 19.8613 12.5021 19.9268 12.4096 19.9268L11.4492 19.9191C11.0433 19.9191 10.6213 19.9191 10.1833 19.9191H10.0547C9.70508 19.9191 9.37153 19.9191 9.04602 19.9191H8.88527C8.79284 19.9191 8.72051 19.8536 8.70845 19.7688C8.68434 19.5453 8.62808 19.052 8.55574 18.343C8.39901 16.7129 8.44322 16.3776 8.44322 16.3776C8.45126 16.2736 8.50752 16.1811 8.59593 16.1233C9.07415 15.8073 9.38761 15.2794 9.38761 14.6821C9.38761 14.6744 9.38761 14.6667 9.38761 14.659V14.6243V14.605C9.30321 12.4162 9.26303 9.91908 9.38761 7.9499C9.38761 7.9422 9.38761 7.93449 9.38761 7.92293C9.38761 7.74181 9.23088 7.59923 9.042 7.60308C8.86116 7.60308 8.71649 7.74181 8.70845 7.91137C8.65219 8.81696 8.62808 9.83044 8.62808 10.8786C8.62808 11.395 8.6321 11.9191 8.64415 12.4432C8.64415 12.6551 8.47135 12.8285 8.25032 12.8324C8.0293 12.8324 7.84444 12.6667 7.84042 12.4547C7.81229 10.8863 7.81631 9.2948 7.9007 7.9499C7.9007 7.9422 7.9007 7.93449 7.9007 7.92293C7.9007 7.74181 7.73995 7.59923 7.55509 7.60308C7.37425 7.60308 7.22958 7.74181 7.22154 7.91137C7.16528 8.80925 7.14117 9.81888 7.14117 10.8593C7.14117 11.3911 7.14921 11.9268 7.15725 12.4624C7.15725 12.6744 6.98444 12.8516 6.76342 12.8555H6.75538C6.53435 12.8555 6.35753 12.6859 6.35351 12.4778C6.34146 11.9345 6.33744 11.3911 6.33744 10.8516C6.33744 9.83044 6.35753 8.83622 6.41379 7.9499C6.41379 7.9422 6.41379 7.93449 6.41379 7.92293C6.41379 7.74181 6.25305 7.59923 6.06819 7.60308C5.97978 7.60308 5.8994 7.63777 5.83912 7.69557C5.77884 7.74952 5.74268 7.82659 5.73464 7.91137C5.60604 9.93834 5.65025 12.5318 5.73866 14.7746C5.77081 15.3757 6.12043 15.896 6.62678 16.1888C6.72323 16.2466 6.79155 16.3468 6.79959 16.4663C6.79959 16.501 6.8036 16.5434 6.80762 16.578C6.83977 17.2486 6.87996 17.9037 6.91613 18.4624C6.95229 19.0173 6.98444 19.4759 7.00052 19.7572C7.00052 19.8112 6.98042 19.8574 6.94426 19.8921C6.91211 19.9229 6.86388 19.9461 6.81164 19.9461C6.78753 19.9461 6.7594 19.9461 6.73529 19.9461H6.72725C5.75071 19.9576 4.84651 19.973 3.86194 20H3.84988C3.71727 20 3.59269 19.9576 3.49222 19.8805C3.39176 19.8073 3.31942 19.7033 3.28727 19.5838C2.8854 17.9268 2.56391 11.5299 2.55185 11.2447C2.52774 11.0173 2.35494 10.8285 2.12989 10.7707L0.438035 10.4586C0.184859 10.3969 0 10.1773 0 9.91908C0 9.8343 0.0200933 9.75337 0.0562613 9.68015C0.12056 9.52601 0.956443 8.03468 2.51569 6.15029C4.07091 4.2659 6.34949 1.98459 9.28312 0.246628C9.40368 0.169557 9.5363 0.1079 9.67695 0.0655104C9.8176 0.0231212 9.97031 0 10.123 0C10.2798 0 10.4284 0.0231212 10.5691 0.0655104C10.7097 0.1079 10.8424 0.169557 10.9629 0.246628C12.2328 0.998073 13.3822 1.85356 14.3989 2.73218C14.3989 2.73218 14.4069 2.73603 14.415 2.73603C14.427 2.73603 14.4351 2.72832 14.4351 2.71676V2.15029C14.4351 1.96146 14.5958 1.80347 14.7927 1.80347C14.8088 1.80347 14.8249 1.80347 14.8369 1.80347L16.5368 2C16.7779 2.02697 16.9909 2.20039 17.0351 2.43545C17.0351 2.43545 17.1115 2.77457 17.212 3.36802C17.3124 3.96146 17.433 4.80925 17.5294 5.83044C17.5375 5.8921 17.5656 5.9499 17.6058 5.99615C19.2414 7.9499 20.1255 9.5183 20.1898 9.6763C20.226 9.74952 20.246 9.83044 20.246 9.91522L20.242 9.91137Z" fill="var(--fill-0, #F36805)"/>
</g>
</svg>
